<?xml version="1.0" encoding="UTF-8" standalone="no"?>
<!DOCTYPE svg PUBLIC "-//W3C//DTD SVG 1.1//EN" "http://www.w3.org/Graphics/SVG/1.1/DTD/svg11.dtd">
<svg width="100%" height="100%" viewBox="0 0 256 256" version="1.1" xmlns="http://www.w3.org/2000/svg" xmlns:xlink="http://www.w3.org/1999/xlink" xml:space="preserve" xmlns:serif="http://www.serif.com/" style="fill-rule:evenodd;clip-rule:evenodd;stroke-linejoin:round;stroke-miterlimit:2;">
    <g id="Background" transform="matrix(0.853333,0,0,0.853333,-1.13687e-13,0)">
        <rect x="0" y="0" width="300" height="300" style="fill:rgb(255,136,69);"/>
    </g>
    <g id="WP-All-Import" serif:id="WP All Import" transform="matrix(0.696715,0,0,0.696715,-220.391,-56.6466)">
        <path id="Calendar-frame" serif:id="Calendar frame" d="M455.037,374.953C455.037,377.618 453.979,380.174 452.094,382.058C450.21,383.942 447.655,385.001 444.99,385.001C436.275,385.001 425.048,385.001 425.048,385.001C409.135,385.001 393.873,378.679 382.621,367.427C371.369,356.175 365.048,340.914 365.048,325.001L365.048,190.024C365.048,174.111 371.369,158.85 382.621,147.597C393.873,136.345 409.135,130.024 425.048,130.024L425.06,130.024L425.06,129.999C425.06,126.021 426.641,122.206 429.454,119.393C432.267,116.58 436.082,114.999 440.06,114.999L440.06,114.999C444.039,114.999 447.854,116.58 450.667,119.393C453.48,122.206 455.06,126.021 455.06,129.999L455.06,130.024L545.053,130.024L545.053,129.999C545.053,126.021 546.634,122.206 549.447,119.393C552.26,116.58 556.075,114.999 560.053,114.999L560.053,114.999C564.031,114.999 567.847,116.58 570.66,119.393C573.473,122.206 575.053,126.021 575.053,129.999L575.053,130.024C590.964,130.025 606.223,136.346 617.474,147.597C628.726,158.85 635.048,174.111 635.048,190.024L635.048,325.001C635.048,340.914 628.726,356.175 617.474,367.427C606.222,378.679 590.961,385.001 575.048,385.001L555.023,385.001C549.474,385.001 544.976,380.502 544.976,374.953C544.976,371.762 544.976,368.234 544.976,365.043C544.976,359.494 549.474,354.996 555.023,354.996C563.766,354.996 575.048,354.996 575.048,354.996C591.616,354.996 605.048,341.564 605.048,324.996C605.048,288.338 605.048,226.682 605.048,190.024C605.048,173.457 591.619,160.027 575.053,160.024C575.047,163.993 573.467,167.799 570.66,170.606C567.847,173.419 564.032,174.999 560.053,174.999L560.053,174.999C556.075,174.999 552.26,173.419 549.447,170.606C546.639,167.799 545.06,163.993 545.053,160.024L455.06,160.024C455.054,163.993 453.474,167.799 450.667,170.606C447.854,173.419 444.039,174.999 440.06,174.999L440.06,174.999C436.082,174.999 432.267,173.419 429.454,170.606C426.647,167.799 425.067,163.993 425.061,160.024L425.048,160.024C408.479,160.024 395.048,173.455 395.048,190.024C395.048,226.682 395.048,288.338 395.048,324.996C395.048,341.564 408.479,354.996 425.048,354.996L444.99,354.996C447.655,354.996 450.21,356.054 452.094,357.939C453.979,359.823 455.037,362.378 455.037,365.043C455.037,368.234 455.037,371.762 455.037,374.953Z" style="fill:white;"/>
        <g id="Events">
            <g id="_16th" serif:id="16th" transform="matrix(1,0,0,1,350,174.993)">
                <path d="M105.037,82.507C105.037,78.368 101.677,75.007 97.537,75.007L82.537,75.007C78.398,75.007 75.037,78.368 75.037,82.507L75.037,97.545C75.037,101.684 78.398,105.045 82.537,105.045L97.537,105.045C101.677,105.045 105.037,101.684 105.037,97.545L105.037,82.507Z" style="fill:white;"/>
            </g>
            <g id="_6th" serif:id="6th" transform="matrix(1,0,0,1,469.938,115)">
                <path d="M105.037,82.507C105.037,78.368 101.677,75.007 97.537,75.007L82.537,75.007C78.398,75.007 75.037,78.368 75.037,82.507L75.037,97.545C75.037,101.684 78.398,105.045 82.537,105.045L97.537,105.045C101.677,105.045 105.037,101.684 105.037,97.545L105.037,82.507Z" style="fill:white;"/>
            </g>
            <g id="_4th" serif:id="4th" transform="matrix(1,0,0,1,410.011,115)">
                <path d="M105.037,82.507C105.037,78.368 101.677,75.007 97.537,75.007L82.537,75.007C78.398,75.007 75.037,78.368 75.037,82.507L75.037,97.545C75.037,101.684 78.398,105.045 82.537,105.045L97.537,105.045C101.677,105.045 105.037,101.684 105.037,97.545L105.037,82.507Z" style="fill:white;"/>
            </g>
            <g id="_2nd" serif:id="2nd" transform="matrix(1,0,0,1,350,115)">
                <path d="M105.037,82.507C105.037,78.368 101.677,75.007 97.537,75.007L82.537,75.007C78.398,75.007 75.037,78.368 75.037,82.507L75.037,97.545C75.037,101.684 78.398,105.045 82.537,105.045L97.537,105.045C101.677,105.045 105.037,101.684 105.037,97.545L105.037,82.507Z" style="fill:white;"/>
            </g>
        </g>
        <g id="Arrow">
            <g transform="matrix(1,0,0,3.49847,410.011,47.5535)">
                <path d="M105.037,77.151C105.037,75.968 101.677,75.007 97.537,75.007L82.537,75.007C78.398,75.007 75.037,75.968 75.037,77.151L75.037,102.901C75.037,104.084 78.398,105.045 82.537,105.045L97.537,105.045C101.677,105.045 105.037,104.084 105.037,102.901L105.037,77.151Z" style="fill:white;"/>
            </g>
            <g transform="matrix(3.20487,0,-1.11022e-15,2.13811,-1433.24,-297.943)">
                <path d="M601.104,267.606C601.614,266.632 602.393,266.064 603.218,266.064C604.044,266.064 604.823,266.632 605.332,267.606C607.698,272.126 611.565,279.513 614.359,284.852C614.994,286.065 615.111,287.714 614.661,289.1C614.211,290.487 613.273,291.366 612.245,291.366C607.067,291.366 599.369,291.366 594.192,291.366C593.163,291.366 592.225,290.487 591.775,289.1C591.326,287.714 591.443,286.065 592.078,284.852C594.872,279.513 598.738,272.126 601.104,267.606Z" style="fill:white;"/>
            </g>
        </g>
    </g>
</svg>
